<?xml version="1.0" standalone="no"?>
<!DOCTYPE svg PUBLIC "-//W3C//DTD SVG 20010904//EN"
 "http://www.w3.org/TR/2001/REC-SVG-20010904/DTD/svg10.dtd">
<svg version="1.0" xmlns="http://www.w3.org/2000/svg"
 width="2543.000000pt" height="2082.000000pt" viewBox="0 0 2543.000000 2082.000000"
 preserveAspectRatio="xMidYMid meet">
<metadata>
Created by potrace 1.13, written by Peter Selinger 2001-2015
</metadata>
<g transform="translate(0.000000,2082.000000) scale(0.100000,-0.100000)"
fill="#000000" stroke="none">
<path d="M8541 20360 l-214 -460 -3703 0 -3704 0 0 -5201 0 -5200 29 -42 c28
-39 54 -54 425 -231 218 -104 395 -191 393 -192 -2 -2 -399 -192 -883 -422
l-879 -419 0 -83 0 -83 345 -164 c1223 -582 1420 -676 1415 -681 -3 -3 -400
-193 -883 -422 l-877 -416 -3 -85 -3 -85 878 -418 c483 -230 881 -421 886
-425 4 -4 -391 -195 -878 -425 l-885 -419 0 -86 0 -86 460 -214 460 -213 0
-1419 c0 -1345 1 -1419 18 -1419 9 0 1460 0 3225 0 l3207 1 0 -526 0 -525 145
0 145 0 0 1375 0 1375 -145 0 -145 0 0 -750 0 -750 -3125 0 -3125 0 0 1346 0
1346 -31 43 c-29 41 -52 53 -418 225 -212 100 -389 185 -394 189 -4 4 390 197
875 428 l883 420 0 82 0 82 -886 422 c-488 232 -885 424 -883 426 2 2 401 192
886 421 l883 417 0 87 0 88 -875 414 c-481 228 -878 418 -882 422 -4 4 386
194 867 422 481 228 879 418 885 424 15 15 13 151 -3 164 -7 6 -215 107 -462
224 l-450 214 -3 2162 -2 2162 3632 0 3633 0 48 38 c46 36 55 52 231 425 101
213 186 390 188 393 3 2 194 -393 425 -878 l420 -883 83 0 82 0 421 883 c231
485 423 882 426 882 3 0 193 -397 422 -883 l417 -882 87 0 88 0 414 875 c228
481 418 878 422 883 4 4 196 -391 426 -878 l420 -886 83 3 83 3 218 460 219
460 5156 3 5156 2 0 -2194 0 -2194 33 -47 c31 -47 38 -51 417 -232 212 -102
389 -188 393 -192 4 -5 -388 -197 -873 -427 l-880 -419 2 -84 3 -85 884 -420
883 -420 -38 -18 c-22 -11 -421 -200 -889 -422 l-850 -403 0 -84 0 -84 882
-420 c486 -231 883 -423 883 -426 0 -3 -388 -189 -862 -413 -475 -224 -873
-414 -886 -422 -21 -14 -23 -21 -20 -96 l3 -80 463 -215 462 -216 0 -1318 0
-1319 -7995 0 -7995 0 0 425 0 425 -125 0 -125 0 -2 -532 c-2 -293 -2 -671 0
-840 l2 -308 125 0 125 0 0 314 0 314 3163 6 c1739 4 5382 6 8095 4 l4932 -3
0 1443 0 1443 -32 44 c-31 41 -55 54 -431 232 l-398 188 58 28 c32 15 429 205
883 421 l825 392 2 85 3 84 -884 420 c-487 231 -882 423 -877 427 4 5 400 194
881 421 l875 414 3 89 2 89 -877 414 c-483 228 -881 417 -885 420 -4 4 391
195 878 425 l885 419 -3 85 -3 85 -462 220 -463 220 0 5168 0 5169 -5280 0
-5280 0 -39 -25 c-35 -24 -55 -60 -232 -427 l-193 -400 -19 38 c-10 22 -199
419 -421 884 l-402 845 -83 0 -83 0 -413 -870 c-228 -478 -418 -876 -422 -884
-6 -10 -110 199 -333 670 -179 376 -368 774 -421 884 l-95 200 -85 3 -84 3
-420 -882 c-231 -484 -422 -882 -425 -884 -3 -2 -193 393 -423 878 l-417 882
-87 2 -88 3 -214 -460z m729 -697 l418 -878 82 0 81 0 421 883 c232 485 424
882 427 882 3 0 194 -397 423 -883 l416 -882 88 0 87 0 414 875 c228 481 418
878 422 883 4 4 191 -381 415 -855 225 -475 415 -873 422 -885 13 -21 22 -23
93 -23 l78 0 220 463 220 462 5157 3 5156 2 0 -2810 0 -2810 -5182 0 -5181 0
-42 -24 c-40 -24 -48 -39 -230 -418 -103 -216 -191 -396 -195 -400 -3 -5 -195
389 -426 875 l-421 882 -82 0 -82 0 -418 -878 c-230 -483 -421 -878 -425 -878
-5 0 -196 395 -425 878 l-417 878 -85 3 -84 3 -420 -881 c-230 -485 -422 -883
-425 -885 -4 -2 -195 394 -425 881 l-418 885 -86 -3 -85 -3 -213 -455 -213
-455 -3610 -3 -3610 -2 0 2805 0 2805 3638 0 3638 0 41 32 c42 31 88 122 370
726 24 52 46 92 49 89 3 -3 194 -400 424 -884z"/>
</g>
<path d="m849.0 46.0 l0 5 l10 0 l0 -10 l-10 0 l0 5z" fill="green"/><path d="m457.0 92.0 l0 5 l10 0 l0 -10 l-10 0 l0 5z" fill="green"/><path d="m86.0 612.0 l0 5 l10 0 l0 -10 l-10 0 l0 5z" fill="green"/><path d="m86.0 1132.0 l0 5 l10 0 l0 -10 l-10 0 l0 5z" fill="green"/><path d="m89.0 1136.0 l0 5 l10 0 l0 -10 l-10 0 l0 5z" fill="green"/><path d="m132.0 1159.0 l0 5 l10 0 l0 -10 l-10 0 l0 5z" fill="green"/><path d="m171.0 1178.0 l0 5 l10 0 l0 -10 l-10 0 l0 5z" fill="green"/><path d="m83.0 1220.0 l0 5 l10 0 l0 -10 l-10 0 l0 5z" fill="green"/><path d="m-5.0 1262.0 l0 5 l10 0 l0 -10 l-10 0 l0 5z" fill="green"/><path d="m-5.0 1271.0 l0 5 l10 0 l0 -10 l-10 0 l0 5z" fill="green"/><path d="m-5.0 1279.0 l0 5 l10 0 l0 -10 l-10 0 l0 5z" fill="green"/><path d="m29.0 1295.0 l0 5 l10 0 l0 -10 l-10 0 l0 5z" fill="green"/><path d="m171.0 1363.0 l0 5 l10 0 l0 -10 l-10 0 l0 5z" fill="green"/><path d="m83.0 1406.0 l0 5 l10 0 l0 -10 l-10 0 l0 5z" fill="green"/><path d="m-5.0 1447.0 l0 5 l10 0 l0 -10 l-10 0 l0 5z" fill="green"/><path d="m-5.0 1456.0 l0 5 l10 0 l0 -10 l-10 0 l0 5z" fill="green"/><path d="m-6.0 1464.0 l0 5 l10 0 l0 -10 l-10 0 l0 5z" fill="green"/><path d="m82.0 1506.0 l0 5 l10 0 l0 -10 l-10 0 l0 5z" fill="green"/><path d="m171.0 1548.0 l0 5 l10 0 l0 -10 l-10 0 l0 5z" fill="green"/><path d="m83.0 1591.0 l0 5 l10 0 l0 -10 l-10 0 l0 5z" fill="green"/><path d="m-6.0 1633.0 l0 5 l10 0 l0 -10 l-10 0 l0 5z" fill="green"/><path d="m-6.0 1641.0 l0 5 l10 0 l0 -10 l-10 0 l0 5z" fill="green"/><path d="m-6.0 1650.0 l0 5 l10 0 l0 -10 l-10 0 l0 5z" fill="green"/><path d="m40.0 1671.0 l0 5 l10 0 l0 -10 l-10 0 l0 5z" fill="green"/><path d="m86.0 1835.0 l0 5 l10 0 l0 -10 l-10 0 l0 5z" fill="green"/><path d="m411.0 1977.0 l0 5 l10 0 l0 -10 l-10 0 l0 5z" fill="green"/><path d="m731.0 2029.0 l0 5 l10 0 l0 -10 l-10 0 l0 5z" fill="green"/><path d="m746.0 2082.0 l0 5 l10 0 l0 -10 l-10 0 l0 5z" fill="green"/><path d="m760.0 1944.0 l0 5 l10 0 l0 -10 l-10 0 l0 5z" fill="green"/><path d="m746.0 1807.0 l0 5 l10 0 l0 -10 l-10 0 l0 5z" fill="green"/><path d="m731.0 1882.0 l0 5 l10 0 l0 -10 l-10 0 l0 5z" fill="green"/><path d="m419.0 1957.0 l0 5 l10 0 l0 -10 l-10 0 l0 5z" fill="green"/><path d="m106.0 1822.0 l0 5 l10 0 l0 -10 l-10 0 l0 5z" fill="green"/><path d="m106.0 1687.0 l0 5 l10 0 l0 -10 l-10 0 l0 5z" fill="green"/><path d="m103.0 1683.0 l0 5 l10 0 l0 -10 l-10 0 l0 5z" fill="green"/><path d="m62.0 1661.0 l0 5 l10 0 l0 -10 l-10 0 l0 5z" fill="green"/><path d="m22.0 1642.0 l0 5 l10 0 l0 -10 l-10 0 l0 5z" fill="green"/><path d="m110.0 1599.0 l0 5 l10 0 l0 -10 l-10 0 l0 5z" fill="green"/><path d="m198.0 1557.0 l0 5 l10 0 l0 -10 l-10 0 l0 5z" fill="green"/><path d="m198.0 1549.0 l0 5 l10 0 l0 -10 l-10 0 l0 5z" fill="green"/><path d="m198.0 1540.0 l0 5 l10 0 l0 -10 l-10 0 l0 5z" fill="green"/><path d="m109.0 1498.0 l0 5 l10 0 l0 -10 l-10 0 l0 5z" fill="green"/><path d="m21.0 1456.0 l0 5 l10 0 l0 -10 l-10 0 l0 5z" fill="green"/><path d="m110.0 1414.0 l0 5 l10 0 l0 -10 l-10 0 l0 5z" fill="green"/><path d="m198.0 1372.0 l0 5 l10 0 l0 -10 l-10 0 l0 5z" fill="green"/><path d="m198.0 1363.0 l0 5 l10 0 l0 -10 l-10 0 l0 5z" fill="green"/><path d="m198.0 1354.0 l0 5 l10 0 l0 -10 l-10 0 l0 5z" fill="green"/><path d="m110.0 1313.0 l0 5 l10 0 l0 -10 l-10 0 l0 5z" fill="green"/><path d="m22.0 1271.0 l0 5 l10 0 l0 -10 l-10 0 l0 5z" fill="green"/><path d="m109.0 1229.0 l0 5 l10 0 l0 -10 l-10 0 l0 5z" fill="green"/><path d="m197.0 1186.0 l0 5 l10 0 l0 -10 l-10 0 l0 5z" fill="green"/><path d="m197.0 1170.0 l0 5 l10 0 l0 -10 l-10 0 l0 5z" fill="green"/><path d="m151.0 1147.0 l0 5 l10 0 l0 -10 l-10 0 l0 5z" fill="green"/><path d="m106.0 910.0 l0 5 l10 0 l0 -10 l-10 0 l0 5z" fill="green"/><path d="m469.0 693.0 l0 5 l10 0 l0 -10 l-10 0 l0 5z" fill="green"/><path d="m832.0 693.0 l0 5 l10 0 l0 -10 l-10 0 l0 5z" fill="green"/><path d="m837.0 690.0 l0 5 l10 0 l0 -10 l-10 0 l0 5z" fill="green"/><path d="m860.0 647.0 l0 5 l10 0 l0 -10 l-10 0 l0 5z" fill="green"/><path d="m879.0 608.0 l0 5 l10 0 l0 -10 l-10 0 l0 5z" fill="green"/><path d="m921.0 696.0 l0 5 l10 0 l0 -10 l-10 0 l0 5z" fill="green"/><path d="m963.0 784.0 l0 5 l10 0 l0 -10 l-10 0 l0 5z" fill="green"/><path d="m971.0 784.0 l0 5 l10 0 l0 -10 l-10 0 l0 5z" fill="green"/><path d="m980.0 784.0 l0 5 l10 0 l0 -10 l-10 0 l0 5z" fill="green"/><path d="m1022.0 696.0 l0 5 l10 0 l0 -10 l-10 0 l0 5z" fill="green"/><path d="m1064.0 607.0 l0 5 l10 0 l0 -10 l-10 0 l0 5z" fill="green"/><path d="m1107.0 696.0 l0 5 l10 0 l0 -10 l-10 0 l0 5z" fill="green"/><path d="m1148.0 784.0 l0 5 l10 0 l0 -10 l-10 0 l0 5z" fill="green"/><path d="m1157.0 784.0 l0 5 l10 0 l0 -10 l-10 0 l0 5z" fill="green"/><path d="m1166.0 784.0 l0 5 l10 0 l0 -10 l-10 0 l0 5z" fill="green"/><path d="m1207.0 696.0 l0 5 l10 0 l0 -10 l-10 0 l0 5z" fill="green"/><path d="m1249.0 608.0 l0 5 l10 0 l0 -10 l-10 0 l0 5z" fill="green"/><path d="m1292.0 696.0 l0 5 l10 0 l0 -10 l-10 0 l0 5z" fill="green"/><path d="m1334.0 785.0 l0 5 l10 0 l0 -10 l-10 0 l0 5z" fill="green"/><path d="m1342.0 784.0 l0 5 l10 0 l0 -10 l-10 0 l0 5z" fill="green"/><path d="m1351.0 784.0 l0 5 l10 0 l0 -10 l-10 0 l0 5z" fill="green"/><path d="m1372.0 738.0 l0 5 l10 0 l0 -10 l-10 0 l0 5z" fill="green"/><path d="m1910.0 692.0 l0 5 l10 0 l0 -10 l-10 0 l0 5z" fill="green"/><path d="m2425.0 911.0 l0 5 l10 0 l0 -10 l-10 0 l0 5z" fill="green"/><path d="m2425.0 1130.0 l0 5 l10 0 l0 -10 l-10 0 l0 5z" fill="green"/><path d="m2429.0 1135.0 l0 5 l10 0 l0 -10 l-10 0 l0 5z" fill="green"/><path d="m2470.0 1158.0 l0 5 l10 0 l0 -10 l-10 0 l0 5z" fill="green"/><path d="m2510.0 1177.0 l0 5 l10 0 l0 -10 l-10 0 l0 5z" fill="green"/><path d="m2422.0 1220.0 l0 5 l10 0 l0 -10 l-10 0 l0 5z" fill="green"/><path d="m2334.0 1262.0 l0 5 l10 0 l0 -10 l-10 0 l0 5z" fill="green"/><path d="m2335.0 1270.0 l0 5 l10 0 l0 -10 l-10 0 l0 5z" fill="green"/><path d="m2335.0 1279.0 l0 5 l10 0 l0 -10 l-10 0 l0 5z" fill="green"/><path d="m2423.0 1321.0 l0 5 l10 0 l0 -10 l-10 0 l0 5z" fill="green"/><path d="m2512.0 1363.0 l0 5 l10 0 l0 -10 l-10 0 l0 5z" fill="green"/><path d="m2508.0 1365.0 l0 5 l10 0 l0 -10 l-10 0 l0 5z" fill="green"/><path d="m2419.0 1407.0 l0 5 l10 0 l0 -10 l-10 0 l0 5z" fill="green"/><path d="m2334.0 1447.0 l0 5 l10 0 l0 -10 l-10 0 l0 5z" fill="green"/><path d="m2334.0 1456.0 l0 5 l10 0 l0 -10 l-10 0 l0 5z" fill="green"/><path d="m2334.0 1464.0 l0 5 l10 0 l0 -10 l-10 0 l0 5z" fill="green"/><path d="m2422.0 1506.0 l0 5 l10 0 l0 -10 l-10 0 l0 5z" fill="green"/><path d="m2510.0 1549.0 l0 5 l10 0 l0 -10 l-10 0 l0 5z" fill="green"/><path d="m2424.0 1590.0 l0 5 l10 0 l0 -10 l-10 0 l0 5z" fill="green"/><path d="m2336.0 1632.0 l0 5 l10 0 l0 -10 l-10 0 l0 5z" fill="green"/><path d="m2334.0 1642.0 l0 5 l10 0 l0 -10 l-10 0 l0 5z" fill="green"/><path d="m2334.0 1650.0 l0 5 l10 0 l0 -10 l-10 0 l0 5z" fill="green"/><path d="m2380.0 1671.0 l0 5 l10 0 l0 -10 l-10 0 l0 5z" fill="green"/><path d="m2426.0 1825.0 l0 5 l10 0 l0 -10 l-10 0 l0 5z" fill="green"/><path d="m1627.0 1957.0 l0 5 l10 0 l0 -10 l-10 0 l0 5z" fill="green"/><path d="m827.0 1914.0 l0 5 l10 0 l0 -10 l-10 0 l0 5z" fill="green"/><path d="m815.0 1872.0 l0 5 l10 0 l0 -10 l-10 0 l0 5z" fill="green"/><path d="m802.0 1925.0 l0 5 l10 0 l0 -10 l-10 0 l0 5z" fill="green"/><path d="m802.0 2009.0 l0 5 l10 0 l0 -10 l-10 0 l0 5z" fill="green"/><path d="m815.0 2040.0 l0 5 l10 0 l0 -10 l-10 0 l0 5z" fill="green"/><path d="m827.0 2008.0 l0 5 l10 0 l0 -10 l-10 0 l0 5z" fill="green"/><path d="m1144.0 1976.0 l0 5 l10 0 l0 -10 l-10 0 l0 5z" fill="green"/><path d="m1953.0 1976.0 l0 5 l10 0 l0 -10 l-10 0 l0 5z" fill="green"/><path d="m2446.0 1832.0 l0 5 l10 0 l0 -10 l-10 0 l0 5z" fill="green"/><path d="m2446.0 1687.0 l0 5 l10 0 l0 -10 l-10 0 l0 5z" fill="green"/><path d="m2443.0 1683.0 l0 5 l10 0 l0 -10 l-10 0 l0 5z" fill="green"/><path d="m2400.0 1660.0 l0 5 l10 0 l0 -10 l-10 0 l0 5z" fill="green"/><path d="m2360.0 1641.0 l0 5 l10 0 l0 -10 l-10 0 l0 5z" fill="green"/><path d="m2366.0 1638.0 l0 5 l10 0 l0 -10 l-10 0 l0 5z" fill="green"/><path d="m2454.0 1596.0 l0 5 l10 0 l0 -10 l-10 0 l0 5z" fill="green"/><path d="m2537.0 1557.0 l0 5 l10 0 l0 -10 l-10 0 l0 5z" fill="green"/><path d="m2537.0 1548.0 l0 5 l10 0 l0 -10 l-10 0 l0 5z" fill="green"/><path d="m2537.0 1540.0 l0 5 l10 0 l0 -10 l-10 0 l0 5z" fill="green"/><path d="m2449.0 1498.0 l0 5 l10 0 l0 -10 l-10 0 l0 5z" fill="green"/><path d="m2361.0 1455.0 l0 5 l10 0 l0 -10 l-10 0 l0 5z" fill="green"/><path d="m2449.0 1413.0 l0 5 l10 0 l0 -10 l-10 0 l0 5z" fill="green"/><path d="m2537.0 1372.0 l0 5 l10 0 l0 -10 l-10 0 l0 5z" fill="green"/><path d="m2537.0 1363.0 l0 5 l10 0 l0 -10 l-10 0 l0 5z" fill="green"/><path d="m2537.0 1354.0 l0 5 l10 0 l0 -10 l-10 0 l0 5z" fill="green"/><path d="m2450.0 1313.0 l0 5 l10 0 l0 -10 l-10 0 l0 5z" fill="green"/><path d="m2361.0 1271.0 l0 5 l10 0 l0 -10 l-10 0 l0 5z" fill="green"/><path d="m2449.0 1228.0 l0 5 l10 0 l0 -10 l-10 0 l0 5z" fill="green"/><path d="m2538.0 1186.0 l0 5 l10 0 l0 -10 l-10 0 l0 5z" fill="green"/><path d="m2537.0 1178.0 l0 5 l10 0 l0 -10 l-10 0 l0 5z" fill="green"/><path d="m2537.0 1169.0 l0 5 l10 0 l0 -10 l-10 0 l0 5z" fill="green"/><path d="m2491.0 1147.0 l0 5 l10 0 l0 -10 l-10 0 l0 5z" fill="green"/><path d="m2444.0 608.0 l0 5 l10 0 l0 -10 l-10 0 l0 5z" fill="green"/><path d="m1916.0 91.0 l0 5 l10 0 l0 -10 l-10 0 l0 5z" fill="green"/><path d="m1388.0 91.0 l0 5 l10 0 l0 -10 l-10 0 l0 5z" fill="green"/><path d="m1385.0 94.0 l0 5 l10 0 l0 -10 l-10 0 l0 5z" fill="green"/><path d="m1361.0 137.0 l0 5 l10 0 l0 -10 l-10 0 l0 5z" fill="green"/><path d="m1342.0 177.0 l0 5 l10 0 l0 -10 l-10 0 l0 5z" fill="green"/><path d="m1340.0 173.0 l0 5 l10 0 l0 -10 l-10 0 l0 5z" fill="green"/><path d="m1298.0 84.0 l0 5 l10 0 l0 -10 l-10 0 l0 5z" fill="green"/><path d="m1258.0 0.0 l0 5 l10 0 l0 -10 l-10 0 l0 5z" fill="green"/><path d="m1250.0 0.0 l0 5 l10 0 l0 -10 l-10 0 l0 5z" fill="green"/><path d="m1241.0 0.0 l0 5 l10 0 l0 -10 l-10 0 l0 5z" fill="green"/><path d="m1200.0 87.0 l0 5 l10 0 l0 -10 l-10 0 l0 5z" fill="green"/><path d="m1158.0 175.0 l0 5 l10 0 l0 -10 l-10 0 l0 5z" fill="green"/><path d="m1124.0 108.0 l0 5 l10 0 l0 -10 l-10 0 l0 5z" fill="green"/><path d="m1082.0 20.0 l0 5 l10 0 l0 -10 l-10 0 l0 5z" fill="green"/><path d="m1073.0 0.0 l0 5 l10 0 l0 -10 l-10 0 l0 5z" fill="green"/><path d="m1064.0 0.0 l0 5 l10 0 l0 -10 l-10 0 l0 5z" fill="green"/><path d="m1056.0 -1.0 l0 5 l10 0 l0 -10 l-10 0 l0 5z" fill="green"/><path d="m1014.0 88.0 l0 5 l10 0 l0 -10 l-10 0 l0 5z" fill="green"/><path d="m971.0 176.0 l0 5 l10 0 l0 -10 l-10 0 l0 5z" fill="green"/><path d="m929.0 88.0 l0 5 l10 0 l0 -10 l-10 0 l0 5z" fill="green"/><path d="m887.0 0.0 l0 5 l10 0 l0 -10 l-10 0 l0 5z" fill="green"/><path d="m879.0 0.0 l0 5 l10 0 l0 -10 l-10 0 l0 5z" fill="green"/><path d="m870.0 -1.0 l0 5 l10 0 l0 -10 l-10 0 l0 5z" fill="green"/><path d="m849.0 45.0 l0 5 l10 0 l0 -10 l-10 0 l0 5z" fill="green"/><path d="m921.0 115.0 l0 5 l10 0 l0 -10 l-10 0 l0 5z" fill="green"/><path d="m963.0 203.0 l0 5 l10 0 l0 -10 l-10 0 l0 5z" fill="green"/><path d="m971.0 203.0 l0 5 l10 0 l0 -10 l-10 0 l0 5z" fill="green"/><path d="m980.0 203.0 l0 5 l10 0 l0 -10 l-10 0 l0 5z" fill="green"/><path d="m1022.0 115.0 l0 5 l10 0 l0 -10 l-10 0 l0 5z" fill="green"/><path d="m1064.0 26.0 l0 5 l10 0 l0 -10 l-10 0 l0 5z" fill="green"/><path d="m1107.0 115.0 l0 5 l10 0 l0 -10 l-10 0 l0 5z" fill="green"/><path d="m1148.0 203.0 l0 5 l10 0 l0 -10 l-10 0 l0 5z" fill="green"/><path d="m1157.0 203.0 l0 5 l10 0 l0 -10 l-10 0 l0 5z" fill="green"/><path d="m1166.0 203.0 l0 5 l10 0 l0 -10 l-10 0 l0 5z" fill="green"/><path d="m1207.0 115.0 l0 5 l10 0 l0 -10 l-10 0 l0 5z" fill="green"/><path d="m1249.0 27.0 l0 5 l10 0 l0 -10 l-10 0 l0 5z" fill="green"/><path d="m1291.0 113.0 l0 5 l10 0 l0 -10 l-10 0 l0 5z" fill="green"/><path d="m1333.0 201.0 l0 5 l10 0 l0 -10 l-10 0 l0 5z" fill="green"/><path d="m1342.0 203.0 l0 5 l10 0 l0 -10 l-10 0 l0 5z" fill="green"/><path d="m1350.0 203.0 l0 5 l10 0 l0 -10 l-10 0 l0 5z" fill="green"/><path d="m1372.0 157.0 l0 5 l10 0 l0 -10 l-10 0 l0 5z" fill="green"/><path d="m1910.0 111.0 l0 5 l10 0 l0 -10 l-10 0 l0 5z" fill="green"/><path d="m2425.0 391.0 l0 5 l10 0 l0 -10 l-10 0 l0 5z" fill="green"/><path d="m1907.0 672.0 l0 5 l10 0 l0 -10 l-10 0 l0 5z" fill="green"/><path d="m1389.0 672.0 l0 5 l10 0 l0 -10 l-10 0 l0 5z" fill="green"/><path d="m1385.0 675.0 l0 5 l10 0 l0 -10 l-10 0 l0 5z" fill="green"/><path d="m1362.0 717.0 l0 5 l10 0 l0 -10 l-10 0 l0 5z" fill="green"/><path d="m1342.0 757.0 l0 5 l10 0 l0 -10 l-10 0 l0 5z" fill="green"/><path d="m1300.0 669.0 l0 5 l10 0 l0 -10 l-10 0 l0 5z" fill="green"/><path d="m1258.0 581.0 l0 5 l10 0 l0 -10 l-10 0 l0 5z" fill="green"/><path d="m1250.0 581.0 l0 5 l10 0 l0 -10 l-10 0 l0 5z" fill="green"/><path d="m1241.0 581.0 l0 5 l10 0 l0 -10 l-10 0 l0 5z" fill="green"/><path d="m1200.0 669.0 l0 5 l10 0 l0 -10 l-10 0 l0 5z" fill="green"/><path d="m1157.0 757.0 l0 5 l10 0 l0 -10 l-10 0 l0 5z" fill="green"/><path d="m1115.0 669.0 l0 5 l10 0 l0 -10 l-10 0 l0 5z" fill="green"/><path d="m1073.0 581.0 l0 5 l10 0 l0 -10 l-10 0 l0 5z" fill="green"/><path d="m1064.0 581.0 l0 5 l10 0 l0 -10 l-10 0 l0 5z" fill="green"/><path d="m1056.0 580.0 l0 5 l10 0 l0 -10 l-10 0 l0 5z" fill="green"/><path d="m1014.0 668.0 l0 5 l10 0 l0 -10 l-10 0 l0 5z" fill="green"/><path d="m971.0 757.0 l0 5 l10 0 l0 -10 l-10 0 l0 5z" fill="green"/><path d="m929.0 669.0 l0 5 l10 0 l0 -10 l-10 0 l0 5z" fill="green"/><path d="m887.0 580.0 l0 5 l10 0 l0 -10 l-10 0 l0 5z" fill="green"/><path d="m879.0 581.0 l0 5 l10 0 l0 -10 l-10 0 l0 5z" fill="green"/><path d="m870.0 581.0 l0 5 l10 0 l0 -10 l-10 0 l0 5z" fill="green"/><path d="m849.0 626.0 l0 5 l10 0 l0 -10 l-10 0 l0 5z" fill="green"/><path d="m466.0 672.0 l0 5 l10 0 l0 -10 l-10 0 l0 5z" fill="green"/><path d="m105.0 392.0 l0 5 l10 0 l0 -10 l-10 0 l0 5z" fill="green"/><path d="m469.0 111.0 l0 5 l10 0 l0 -10 l-10 0 l0 5z" fill="green"/><path d="m833.0 111.0 l0 5 l10 0 l0 -10 l-10 0 l0 5z" fill="green"/><path d="m837.0 108.0 l0 5 l10 0 l0 -10 l-10 0 l0 5z" fill="green"/><path d="m874.0 36.0 l0 5 l10 0 l0 -10 l-10 0 l0 5z" fill="green"/><path d="m879.0 27.0 l0 5 l10 0 l0 -10 l-10 0 l0 5z" fill="green"/><path d="m92 92 l2359 0 l0 2 l-2359 0 l0 -2z" fill="purple"/><path d="m111 112 l2320 0 l0 2 l-2320 0 l0 -2z" fill="purple"/><path d="m111 673 l2320 0 l0 2 l-2320 0 l0 -2z" fill="purple"/><path d="m111 694 l2320 0 l0 2 l-2320 0 l0 -2z" fill="purple"/><path d="m112 1957 l625 0 l0 2 l-625 0 l0 -2z" fill="purple"/><path d="m833 1957 l1599 0 l0 2 l-1599 0 l0 -2z" fill="purple"/><path d="m737 1977 l1716 0 l0 2 l-1716 0 l0 -2z" fill="purple"/><path d="m94 1977 l740 0 l0 2 l-740 0 l0 -2z" fill="purple"/><path d="m92 92 l0 1885 l2 0 l0 -1885 l-2 0z" fill="purple"/><path d="m111 112 l0 1846 l2 0 l0 -1846 l-2 0z" fill="purple"/><path d="m737 1807 l0 150 l2 0 l0 -150 l-2 0z" fill="purple"/><path d="m766 1807 l0 275 l2 0 l0 -275 l-2 0z" fill="purple"/><path d="m808 1872 l0 168 l2 0 l0 -168 l-2 0z" fill="purple"/><path d="m2431 111 l0 582 l2 0 l0 -582 l-2 0z" fill="purple"/><path d="m2431 673 l0 1285 l2 0 l0 -1285 l-2 0z" fill="purple"/><path d="m2450 92 l0 1885 l2 0 l0 -1885 l-2 0z" fill="purple"/><path d="m827.0 92.0 l0 5 l10 0 l0 -10 l-10 0 l0 5z" fill="red"/><path d="m86.0 1693.0 l0 5 l10 0 l0 -10 l-10 0 l0 5z" fill="red"/><path d="m106.0 1126.0 l0 5 l10 0 l0 -10 l-10 0 l0 5z" fill="red"/><path d="m1394.0 692.0 l0 5 l10 0 l0 -10 l-10 0 l0 5z" fill="red"/><path d="m2426.0 1693.0 l0 5 l10 0 l0 -10 l-10 0 l0 5z" fill="red"/><path d="m2444.0 1125.0 l0 5 l10 0 l0 -10 l-10 0 l0 5z" fill="red"/><path d="m1394.0 111.0 l0 5 l10 0 l0 -10 l-10 0 l0 5z" fill="red"/><path d="m827.0 672.0 l0 5 l10 0 l0 -10 l-10 0 l0 5z" fill="red"/><path d="m765 1960 l0 -3 l6 0 l0 6 l-6 0 l0 -3" fill="red"/><path d="m807 1971 l0 -3 l6 0 l0 6 l-6 0 l0 -3" fill="red"/><path d="m86.0 92.0 l0 5 l10 0 l0 -10 l-10 0 l0 5z" fill="blue"/><path d="m88.0 1977.0 l0 5 l10 0 l0 -10 l-10 0 l0 5z" fill="blue"/><path d="m731.0 1976.0 l0 5 l10 0 l0 -10 l-10 0 l0 5z" fill="blue"/><path d="m731.0 2082.0 l0 5 l10 0 l0 -10 l-10 0 l0 5z" fill="blue"/><path d="m760.0 2082.0 l0 5 l10 0 l0 -10 l-10 0 l0 5z" fill="blue"/><path d="m760.0 1807.0 l0 5 l10 0 l0 -10 l-10 0 l0 5z" fill="blue"/><path d="m731.0 1807.0 l0 5 l10 0 l0 -10 l-10 0 l0 5z" fill="blue"/><path d="m731.0 1957.0 l0 5 l10 0 l0 -10 l-10 0 l0 5z" fill="blue"/><path d="m106.0 1957.0 l0 5 l10 0 l0 -10 l-10 0 l0 5z" fill="blue"/><path d="m105.0 693.0 l0 5 l10 0 l0 -10 l-10 0 l0 5z" fill="blue"/><path d="m2425.0 691.0 l0 5 l10 0 l0 -10 l-10 0 l0 5z" fill="blue"/><path d="m2426.0 1957.0 l0 5 l10 0 l0 -10 l-10 0 l0 5z" fill="blue"/><path d="m827.0 1957.0 l0 5 l10 0 l0 -10 l-10 0 l0 5z" fill="blue"/><path d="m827.0 1872.0 l0 5 l10 0 l0 -10 l-10 0 l0 5z" fill="blue"/><path d="m802.0 1872.0 l0 5 l10 0 l0 -10 l-10 0 l0 5z" fill="blue"/><path d="m802.0 2040.0 l0 5 l10 0 l0 -10 l-10 0 l0 5z" fill="blue"/><path d="m827.0 2040.0 l0 5 l10 0 l0 -10 l-10 0 l0 5z" fill="blue"/><path d="m827.0 1977.0 l0 5 l10 0 l0 -10 l-10 0 l0 5z" fill="blue"/><path d="m2446.0 1976.0 l0 5 l10 0 l0 -10 l-10 0 l0 5z" fill="blue"/><path d="m2444.0 91.0 l0 5 l10 0 l0 -10 l-10 0 l0 5z" fill="blue"/><path d="m2425.0 110.0 l0 5 l10 0 l0 -10 l-10 0 l0 5z" fill="blue"/><path d="m2425.0 672.0 l0 5 l10 0 l0 -10 l-10 0 l0 5z" fill="blue"/><path d="m105.0 672.0 l0 5 l10 0 l0 -10 l-10 0 l0 5z" fill="blue"/><path d="m105.0 111.0 l0 5 l10 0 l0 -10 l-10 0 l0 5z" fill="blue"/><path d="m105.0 683.0 l0 5 l10 0 l0 -10 l-10 0 l0 5z" fill="orange"/><path d="m2425.0 683.0 l0 5 l10 0 l0 -10 l-10 0 l0 5z" fill="orange"/>
</svg>
